<svg id="Layer_1" data-name="Layer 1" xmlns="http://www.w3.org/2000/svg" xmlns:xlink="http://www.w3.org/1999/xlink" viewBox="0 0 73.2 15.79"><defs><style>.cls-1{fill:url(#linear-gradient);}.cls-2{fill:url(#linear-gradient-2);}.cls-3{fill:url(#linear-gradient-3);}.cls-4{fill:url(#linear-gradient-4);}.cls-5{fill:url(#linear-gradient-5);}.cls-6{fill:url(#linear-gradient-6);}.cls-7{fill:url(#linear-gradient-7);}.cls-8{fill:url(#linear-gradient-8);}.cls-9{fill:url(#linear-gradient-9);}.cls-10{fill:url(#linear-gradient-10);}</style><linearGradient id="linear-gradient" x1="8.43" y1="10.48" x2="19.65" y2="10.48" gradientUnits="userSpaceOnUse"><stop offset="0" stop-color="#b9785d"/><stop offset="0.3" stop-color="#e99178"/><stop offset="0.7" stop-color="#fabca4"/><stop offset="1" stop-color="#b5745a"/></linearGradient><linearGradient id="linear-gradient-2" x1="29.48" y1="10.83" x2="41.78" y2="10.83" xlink:href="#linear-gradient"/><linearGradient id="linear-gradient-3" x1="38.31" y1="10.83" x2="50.61" y2="10.83" xlink:href="#linear-gradient"/><linearGradient id="linear-gradient-4" x1="50.05" y1="9.52" x2="58.94" y2="9.52" xlink:href="#linear-gradient"/><linearGradient id="linear-gradient-5" x1="58.7" y1="9.52" x2="67.64" y2="9.52" xlink:href="#linear-gradient"/><linearGradient id="linear-gradient-6" x1="68.38" y1="9.52" x2="76.33" y2="9.52" xlink:href="#linear-gradient"/><linearGradient id="linear-gradient-7" x1="76.67" y1="8.47" x2="81.63" y2="8.47" xlink:href="#linear-gradient"/><linearGradient id="linear-gradient-8" x1="12.14" y1="8.05" x2="21.63" y2="8.05" xlink:href="#linear-gradient"/><linearGradient id="linear-gradient-9" x1="14.6" y1="0.81" x2="37.99" y2="23.31" xlink:href="#linear-gradient"/><linearGradient id="linear-gradient-10" x1="34.9" y1="18.59" x2="17.5" y2="3.99" xlink:href="#linear-gradient"/></defs><path class="cls-1" d="M19.65,4.18l-.87,3.91h-.31l0-1a3.32,3.32,0,0,0-.21-1,1.82,1.82,0,0,0-.46-.72A1.91,1.91,0,0,0,17,5a2.93,2.93,0,0,0-1-.18,4.36,4.36,0,0,0-2.7.87,7.38,7.38,0,0,0-2.31,3.13,9,9,0,0,0-.68,3.39,3.91,3.91,0,0,0,1,2.8,3.41,3.41,0,0,0,2.57,1,4.17,4.17,0,0,0,2.13-.55,5.7,5.7,0,0,0,1.74-1.7h.4A6.93,6.93,0,0,1,16,16.05a5,5,0,0,1-2.76.73,5.1,5.1,0,0,1-2.53-.62A4.06,4.06,0,0,1,9,14.43,5.26,5.26,0,0,1,8.43,12a7.78,7.78,0,0,1,1-3.83,7.71,7.71,0,0,1,2.81-2.94,7,7,0,0,1,3.61-1.07,5.25,5.25,0,0,1,1.9.42,2.22,2.22,0,0,0,.67.18.69.69,0,0,0,.36-.09,2.8,2.8,0,0,0,.52-.51Z" transform="translate(-8.43 -2.76)"/><path class="cls-2" d="M36.48,4.86l-.72,2.05a8.56,8.56,0,0,1,2-1.59,3.81,3.81,0,0,1,1.79-.46,2.19,2.19,0,0,1,2.22,2.26,6,6,0,0,1-1.85,4,5.65,5.65,0,0,1-4.3,2,4.19,4.19,0,0,1-.91-.09,4.44,4.44,0,0,1-.88-.35L33.09,15a3.4,3.4,0,0,0-.23.87.52.52,0,0,0,.12.34.81.81,0,0,0,.38.21,4.67,4.67,0,0,0,1.06.08l-.09.33H29.48l.1-.33a2.5,2.5,0,0,0,1.29-.28,3.19,3.19,0,0,0,.71-1.39L34.19,7a4.84,4.84,0,0,0,.23-.91.46.46,0,0,0-.16-.38.71.71,0,0,0-.48-.13,6,6,0,0,0-.83.07V5.32ZM34.07,12a2.3,2.3,0,0,0,1.73.66,2.57,2.57,0,0,0,1.08-.25A4.37,4.37,0,0,0,38,11.61a6.07,6.07,0,0,0,1-1.16,7.92,7.92,0,0,0,.76-1.57A4.93,4.93,0,0,0,40,7.1,1.46,1.46,0,0,0,39.65,6a1.24,1.24,0,0,0-.89-.38,3.13,3.13,0,0,0-2.2,1.1A6.82,6.82,0,0,0,35,9.32Z" transform="translate(-8.43 -2.76)"/><path class="cls-3" d="M45.31,4.86l-.72,2.05a8.56,8.56,0,0,1,2-1.59,3.81,3.81,0,0,1,1.79-.46,2.19,2.19,0,0,1,2.22,2.26,6,6,0,0,1-1.85,4,5.63,5.63,0,0,1-4.3,2,4,4,0,0,1-.9-.09,4.28,4.28,0,0,1-.89-.35L41.92,15a3.4,3.4,0,0,0-.23.87.52.52,0,0,0,.12.34.81.81,0,0,0,.38.21,4.67,4.67,0,0,0,1.06.08l-.09.33H38.31l.1-.33a2.5,2.5,0,0,0,1.29-.28,3.19,3.19,0,0,0,.71-1.39L43,7a4.84,4.84,0,0,0,.23-.91.46.46,0,0,0-.16-.38.71.71,0,0,0-.48-.13,6,6,0,0,0-.83.07V5.32ZM42.9,12a2.3,2.3,0,0,0,1.73.66,2.57,2.57,0,0,0,1.08-.25,4.19,4.19,0,0,0,1.09-.77,6.07,6.07,0,0,0,1-1.16,7.92,7.92,0,0,0,.76-1.57,4.93,4.93,0,0,0,.34-1.78A1.46,1.46,0,0,0,48.48,6a1.24,1.24,0,0,0-.89-.38,3.13,3.13,0,0,0-2.2,1.1A6.82,6.82,0,0,0,43.8,9.32Z" transform="translate(-8.43 -2.76)"/><path class="cls-4" d="M58.94,4.86,57,11.67l-.22.92a2.06,2.06,0,0,0,0,.21.43.43,0,0,0,.1.29.22.22,0,0,0,.19.09.69.69,0,0,0,.33-.16,6.24,6.24,0,0,0,1-1.2l.33.24a6.17,6.17,0,0,1-1.38,1.59,2.27,2.27,0,0,1-1.32.54.85.85,0,0,1-.62-.21.87.87,0,0,1-.21-.63,4.94,4.94,0,0,1,.22-1.29l.2-.77A9.8,9.8,0,0,1,53.3,13.7a2.75,2.75,0,0,1-1.51.49,1.54,1.54,0,0,1-1.22-.61,2.45,2.45,0,0,1-.52-1.66A7.32,7.32,0,0,1,51,8.54a8,8,0,0,1,2.36-2.83,3.5,3.5,0,0,1,2.11-.85,1.53,1.53,0,0,1,1,.32A2.13,2.13,0,0,1,57,6.26l.35-1.15Zm-3.47.52A2.12,2.12,0,0,0,54.15,6a7.29,7.29,0,0,0-1.78,2.53,7.44,7.44,0,0,0-.77,3,1.63,1.63,0,0,0,.33,1.07,1,1,0,0,0,.77.4c.7,0,1.47-.54,2.3-1.62A7.13,7.13,0,0,0,56.67,7a2,2,0,0,0-.32-1.23A1.09,1.09,0,0,0,55.47,5.38Z" transform="translate(-8.43 -2.76)"/><path class="cls-5" d="M62.87,4.86,61.58,9.44a21.53,21.53,0,0,1,2.79-3.7,2.84,2.84,0,0,1,1.87-.88A1,1,0,0,1,67,5.2a1.2,1.2,0,0,1,.32.86,6.23,6.23,0,0,1-.28,1.61l-1.19,4.22a5.71,5.71,0,0,0-.2.9.36.36,0,0,0,.08.23.21.21,0,0,0,.16.09A.53.53,0,0,0,66.2,13a6.9,6.9,0,0,0,1.14-1.28l.3.18a7.55,7.55,0,0,1-1.72,1.91,1.87,1.87,0,0,1-1,.39.75.75,0,0,1-.58-.23.84.84,0,0,1-.21-.6,7.18,7.18,0,0,1,.33-1.65l1.13-4a4.66,4.66,0,0,0,.21-1.18.41.41,0,0,0-.13-.32A.44.44,0,0,0,65.35,6a1.34,1.34,0,0,0-.65.24,6,6,0,0,0-1.49,1.49,22.33,22.33,0,0,0-1.65,2.65,10.46,10.46,0,0,0-.77,1.87l-.62,1.9H58.7l1.93-6.52a9.64,9.64,0,0,0,.31-1.36.55.55,0,0,0-.18-.4.57.57,0,0,0-.41-.17l-.41,0-.38,0-.06-.36Z" transform="translate(-8.43 -2.76)"/><path class="cls-6" d="M70.12,10.17a7.3,7.3,0,0,0-.06.83,2.1,2.1,0,0,0,.61,1.52,2,2,0,0,0,1.5.63,3.15,3.15,0,0,0,1.34-.3,10,10,0,0,0,1.92-1.31l.21.29q-2.31,2.36-4.41,2.36a2.55,2.55,0,0,1-2.13-.92,3.26,3.26,0,0,1-.72-2,6.13,6.13,0,0,1,.9-3.06,6.87,6.87,0,0,1,2.24-2.44,5.08,5.08,0,0,1,2.79-.87,2.21,2.21,0,0,1,1.52.44,1.33,1.33,0,0,1,.5,1,2.46,2.46,0,0,1-.65,1.6,5.78,5.78,0,0,1-2.49,1.6A13.38,13.38,0,0,1,70.12,10.17Zm.07-.5a8.05,8.05,0,0,0,2.35-.58,4.79,4.79,0,0,0,1.8-1.32,2.41,2.41,0,0,0,.6-1.46.94.94,0,0,0-.26-.68,1,1,0,0,0-.74-.26,3.12,3.12,0,0,0-2.1,1.09A6.67,6.67,0,0,0,70.19,9.67Z" transform="translate(-8.43 -2.76)"/><path class="cls-7" d="M80.88,2.76,80.15,5.4h1.48L81.47,6H80l-1.63,5.72a6.47,6.47,0,0,0-.26,1.19.45.45,0,0,0,.07.26.23.23,0,0,0,.18.09,1.07,1.07,0,0,0,.62-.35,11.74,11.74,0,0,0,1-1.19l.3.25a7.15,7.15,0,0,1-1.64,1.84,1.85,1.85,0,0,1-1.06.36.91.91,0,0,1-.68-.27.94.94,0,0,1-.26-.69A7.09,7.09,0,0,1,77,11.64L78.54,6H77.12l.09-.39a4.48,4.48,0,0,0,1.73-.87,8.26,8.26,0,0,0,1.53-2Z" transform="translate(-8.43 -2.76)"/><polygon class="cls-8" points="21.63 0.31 14.38 8.5 16.7 8.5 12.14 15.79 19.73 7.61 17.32 7.61 21.63 0.31"/><path class="cls-9" d="M25.32,4.86a5.86,5.86,0,0,0-5.77,6,6,6,0,0,0,2.14,4.63l.53-.85a5,5,0,0,1-1.7-3.78,4.88,4.88,0,0,1,4.8-4.95A4.57,4.57,0,0,1,26.61,6l.72-.81A5.64,5.64,0,0,0,25.32,4.86Z" transform="translate(-8.43 -2.76)"/><path class="cls-10" d="M29,6.24l-.52.87a5,5,0,0,1,1.62,3.7,4.87,4.87,0,0,1-4.8,4.95,4.31,4.31,0,0,1-1-.11l-.76.82a5.54,5.54,0,0,0,1.78.3,5.87,5.87,0,0,0,5.77-6A6,6,0,0,0,29,6.24Z" transform="translate(-8.43 -2.76)"/></svg>